<?xml version="1.0" encoding="UTF-8"?>
<svg xmlns="http://www.w3.org/2000/svg" xmlns:xlink="http://www.w3.org/1999/xlink" width="128px" height="128px" viewBox="0 0 128 128" version="1.1">
<defs>
<linearGradient id="linear0" gradientUnits="userSpaceOnUse" x1="11.999994" y1="254" x2="116" y2="254" gradientTransform="matrix(1.076923,0,0,1.066667,-4.428073,-187.428352)">
<stop offset="0" style="stop-color:rgb(60.392159%,60.000002%,58.823532%);stop-opacity:1;"/>
<stop offset="0.0384616" style="stop-color:rgb(75.294119%,74.901962%,73.725492%);stop-opacity:1;"/>
<stop offset="0.0769231" style="stop-color:rgb(46.666667%,46.27451%,48.235294%);stop-opacity:1;"/>
<stop offset="0.923077" style="stop-color:rgb(46.666667%,46.27451%,48.235294%);stop-opacity:1;"/>
<stop offset="0.961538" style="stop-color:rgb(75.294119%,74.901962%,73.725492%);stop-opacity:1;"/>
<stop offset="1" style="stop-color:rgb(60.392159%,60.000002%,58.823532%);stop-opacity:1;"/>
</linearGradient>
<linearGradient id="linear1" gradientUnits="userSpaceOnUse" x1="19" y1="209" x2="31" y2="209" gradientTransform="matrix(0.000000000000000061,1,-1,0.000000000000000061,233.495007,20.504974)">
<stop offset="0" style="stop-color:rgb(36.862746%,36.078432%,39.215687%);stop-opacity:1;"/>
<stop offset="1" style="stop-color:rgb(46.666667%,46.27451%,48.235294%);stop-opacity:1;"/>
</linearGradient>
<linearGradient id="linear2" gradientUnits="userSpaceOnUse" x1="19" y1="209" x2="31" y2="209" gradientTransform="matrix(0.000000000000000061,1,-1,0.000000000000000061,309.495007,64.504974)">
<stop offset="0" style="stop-color:rgb(36.862746%,36.078432%,39.215687%);stop-opacity:1;"/>
<stop offset="1" style="stop-color:rgb(46.666667%,46.27451%,48.235294%);stop-opacity:1;"/>
</linearGradient>
<linearGradient id="linear3" gradientUnits="userSpaceOnUse" x1="17" y1="209" x2="31" y2="209" gradientTransform="matrix(0.000000000000000061,1,-1,0.000000000000000061,257.495007,64.504974)">
<stop offset="0" style="stop-color:rgb(68.235296%,67.843139%,67.058825%);stop-opacity:1;"/>
<stop offset="1" style="stop-color:rgb(80.784315%,80.000001%,78.431374%);stop-opacity:1;"/>
</linearGradient>
<linearGradient id="linear4" gradientUnits="userSpaceOnUse" x1="19" y1="209" x2="31" y2="209" gradientTransform="matrix(0.000000000000000061,1,-1,0.000000000000000061,253.495007,20.504974)">
<stop offset="0" style="stop-color:rgb(36.862746%,36.078432%,39.215687%);stop-opacity:1;"/>
<stop offset="1" style="stop-color:rgb(46.666667%,46.27451%,48.235294%);stop-opacity:1;"/>
</linearGradient>
<linearGradient id="linear5" gradientUnits="userSpaceOnUse" x1="19" y1="209" x2="31" y2="209" gradientTransform="matrix(0.000000000000000061,1,-1,0.000000000000000061,273.495007,20.504974)">
<stop offset="0" style="stop-color:rgb(36.862746%,36.078432%,39.215687%);stop-opacity:1;"/>
<stop offset="1" style="stop-color:rgb(46.666667%,46.27451%,48.235294%);stop-opacity:1;"/>
</linearGradient>
<linearGradient id="linear6" gradientUnits="userSpaceOnUse" x1="19" y1="209" x2="31" y2="209" gradientTransform="matrix(0.000000000000000061,1,-1,0.000000000000000061,293.495007,20.504974)">
<stop offset="0" style="stop-color:rgb(36.862746%,36.078432%,39.215687%);stop-opacity:1;"/>
<stop offset="1" style="stop-color:rgb(46.666667%,46.27451%,48.235294%);stop-opacity:1;"/>
</linearGradient>
<linearGradient id="linear7" gradientUnits="userSpaceOnUse" x1="19" y1="209" x2="31" y2="209" gradientTransform="matrix(0.000000000000000061,1,-1,0.000000000000000061,313.495007,20.504974)">
<stop offset="0" style="stop-color:rgb(36.862746%,36.078432%,39.215687%);stop-opacity:1;"/>
<stop offset="1" style="stop-color:rgb(46.666667%,46.27451%,48.235294%);stop-opacity:1;"/>
</linearGradient>
<linearGradient id="linear8" gradientUnits="userSpaceOnUse" x1="19" y1="209" x2="31" y2="209" gradientTransform="matrix(0.000000000000000061,1,-1,0.000000000000000061,243.495007,42.504974)">
<stop offset="0" style="stop-color:rgb(36.862746%,36.078432%,39.215687%);stop-opacity:1;"/>
<stop offset="1" style="stop-color:rgb(46.666667%,46.27451%,48.235294%);stop-opacity:1;"/>
</linearGradient>
<linearGradient id="linear9" gradientUnits="userSpaceOnUse" x1="19" y1="209" x2="31" y2="209" gradientTransform="matrix(0.000000000000000061,1,-1,0.000000000000000061,263.495007,42.504974)">
<stop offset="0" style="stop-color:rgb(36.862746%,36.078432%,39.215687%);stop-opacity:1;"/>
<stop offset="1" style="stop-color:rgb(46.666667%,46.27451%,48.235294%);stop-opacity:1;"/>
</linearGradient>
<linearGradient id="linear10" gradientUnits="userSpaceOnUse" x1="19" y1="209" x2="31" y2="209" gradientTransform="matrix(0.000000000000000061,1,-1,0.000000000000000061,283.495007,42.504974)">
<stop offset="0" style="stop-color:rgb(36.862746%,36.078432%,39.215687%);stop-opacity:1;"/>
<stop offset="1" style="stop-color:rgb(46.666667%,46.27451%,48.235294%);stop-opacity:1;"/>
</linearGradient>
<linearGradient id="linear11" gradientUnits="userSpaceOnUse" x1="19" y1="209" x2="31" y2="209" gradientTransform="matrix(0.000000000000000061,1,-1,0.000000000000000061,313.495007,42.504974)">
<stop offset="0" style="stop-color:rgb(90.196079%,38.039216%,0%);stop-opacity:1;"/>
<stop offset="1" style="stop-color:rgb(100%,47.058824%,0%);stop-opacity:1;"/>
</linearGradient>
<linearGradient id="linear12" gradientUnits="userSpaceOnUse" x1="19" y1="209" x2="31" y2="209" gradientTransform="matrix(0.000000000000000061,1,-1,0.000000000000000061,237.495007,64.504974)">
<stop offset="0" style="stop-color:rgb(36.862746%,36.078432%,39.215687%);stop-opacity:1;"/>
<stop offset="1" style="stop-color:rgb(46.666667%,46.27451%,48.235294%);stop-opacity:1;"/>
</linearGradient>
<linearGradient id="linear13" gradientUnits="userSpaceOnUse" x1="11.999994" y1="254" x2="116" y2="254" gradientTransform="matrix(1.076923,0,0,1.066667,-4.428073,-187.428352)">
<stop offset="0" style="stop-color:rgb(60.392159%,60.000002%,58.823532%);stop-opacity:1;"/>
<stop offset="0.0384616" style="stop-color:rgb(75.294119%,74.901962%,73.725492%);stop-opacity:1;"/>
<stop offset="0.0769231" style="stop-color:rgb(46.666667%,46.27451%,48.235294%);stop-opacity:1;"/>
<stop offset="0.923077" style="stop-color:rgb(46.666667%,46.27451%,48.235294%);stop-opacity:1;"/>
<stop offset="0.961538" style="stop-color:rgb(75.294119%,74.901962%,73.725492%);stop-opacity:1;"/>
<stop offset="1" style="stop-color:rgb(60.392159%,60.000002%,58.823532%);stop-opacity:1;"/>
</linearGradient>
<linearGradient id="linear14" gradientUnits="userSpaceOnUse" x1="19" y1="209" x2="31" y2="209" gradientTransform="matrix(0.000000000000000061,1,-1,0.000000000000000061,233.495007,20.504974)">
<stop offset="0" style="stop-color:rgb(36.862746%,36.078432%,39.215687%);stop-opacity:1;"/>
<stop offset="1" style="stop-color:rgb(46.666667%,46.27451%,48.235294%);stop-opacity:1;"/>
</linearGradient>
<linearGradient id="linear15" gradientUnits="userSpaceOnUse" x1="19" y1="209" x2="31" y2="209" gradientTransform="matrix(0.000000000000000061,1,-1,0.000000000000000061,309.495007,64.504974)">
<stop offset="0" style="stop-color:rgb(36.862746%,36.078432%,39.215687%);stop-opacity:1;"/>
<stop offset="1" style="stop-color:rgb(46.666667%,46.27451%,48.235294%);stop-opacity:1;"/>
</linearGradient>
<linearGradient id="linear16" gradientUnits="userSpaceOnUse" x1="17" y1="209" x2="31" y2="209" gradientTransform="matrix(0.000000000000000061,1,-1,0.000000000000000061,257.495007,64.504974)">
<stop offset="0" style="stop-color:rgb(68.235296%,67.843139%,67.058825%);stop-opacity:1;"/>
<stop offset="1" style="stop-color:rgb(80.784315%,80.000001%,78.431374%);stop-opacity:1;"/>
</linearGradient>
<linearGradient id="linear17" gradientUnits="userSpaceOnUse" x1="19" y1="209" x2="31" y2="209" gradientTransform="matrix(0.000000000000000061,1,-1,0.000000000000000061,253.495007,20.504974)">
<stop offset="0" style="stop-color:rgb(36.862746%,36.078432%,39.215687%);stop-opacity:1;"/>
<stop offset="1" style="stop-color:rgb(46.666667%,46.27451%,48.235294%);stop-opacity:1;"/>
</linearGradient>
<linearGradient id="linear18" gradientUnits="userSpaceOnUse" x1="19" y1="209" x2="31" y2="209" gradientTransform="matrix(0.000000000000000061,1,-1,0.000000000000000061,273.495007,20.504974)">
<stop offset="0" style="stop-color:rgb(36.862746%,36.078432%,39.215687%);stop-opacity:1;"/>
<stop offset="1" style="stop-color:rgb(46.666667%,46.27451%,48.235294%);stop-opacity:1;"/>
</linearGradient>
<linearGradient id="linear19" gradientUnits="userSpaceOnUse" x1="19" y1="209" x2="31" y2="209" gradientTransform="matrix(0.000000000000000061,1,-1,0.000000000000000061,293.495007,20.504974)">
<stop offset="0" style="stop-color:rgb(36.862746%,36.078432%,39.215687%);stop-opacity:1;"/>
<stop offset="1" style="stop-color:rgb(46.666667%,46.27451%,48.235294%);stop-opacity:1;"/>
</linearGradient>
<linearGradient id="linear20" gradientUnits="userSpaceOnUse" x1="19" y1="209" x2="31" y2="209" gradientTransform="matrix(0.000000000000000061,1,-1,0.000000000000000061,313.495007,20.504974)">
<stop offset="0" style="stop-color:rgb(36.862746%,36.078432%,39.215687%);stop-opacity:1;"/>
<stop offset="1" style="stop-color:rgb(46.666667%,46.27451%,48.235294%);stop-opacity:1;"/>
</linearGradient>
<linearGradient id="linear21" gradientUnits="userSpaceOnUse" x1="19" y1="209" x2="31" y2="209" gradientTransform="matrix(0.000000000000000061,1,-1,0.000000000000000061,243.495007,42.504974)">
<stop offset="0" style="stop-color:rgb(36.862746%,36.078432%,39.215687%);stop-opacity:1;"/>
<stop offset="1" style="stop-color:rgb(46.666667%,46.27451%,48.235294%);stop-opacity:1;"/>
</linearGradient>
<linearGradient id="linear22" gradientUnits="userSpaceOnUse" x1="19" y1="209" x2="31" y2="209" gradientTransform="matrix(0.000000000000000061,1,-1,0.000000000000000061,263.495007,42.504974)">
<stop offset="0" style="stop-color:rgb(36.862746%,36.078432%,39.215687%);stop-opacity:1;"/>
<stop offset="1" style="stop-color:rgb(46.666667%,46.27451%,48.235294%);stop-opacity:1;"/>
</linearGradient>
<linearGradient id="linear23" gradientUnits="userSpaceOnUse" x1="19" y1="209" x2="31" y2="209" gradientTransform="matrix(0.000000000000000061,1,-1,0.000000000000000061,283.495007,42.504974)">
<stop offset="0" style="stop-color:rgb(36.862746%,36.078432%,39.215687%);stop-opacity:1;"/>
<stop offset="1" style="stop-color:rgb(46.666667%,46.27451%,48.235294%);stop-opacity:1;"/>
</linearGradient>
<linearGradient id="linear24" gradientUnits="userSpaceOnUse" x1="19" y1="209" x2="31" y2="209" gradientTransform="matrix(0.000000000000000061,1,-1,0.000000000000000061,313.495007,42.504974)">
<stop offset="0" style="stop-color:rgb(90.196079%,38.039216%,0%);stop-opacity:1;"/>
<stop offset="1" style="stop-color:rgb(100%,47.058824%,0%);stop-opacity:1;"/>
</linearGradient>
<linearGradient id="linear25" gradientUnits="userSpaceOnUse" x1="19" y1="209" x2="31" y2="209" gradientTransform="matrix(0.000000000000000061,1,-1,0.000000000000000061,237.495007,64.504974)">
<stop offset="0" style="stop-color:rgb(36.862746%,36.078432%,39.215687%);stop-opacity:1;"/>
<stop offset="1" style="stop-color:rgb(46.666667%,46.27451%,48.235294%);stop-opacity:1;"/>
</linearGradient>
<clipPath id="clip2">
  <rect x="0" y="0" width="128" height="128"/>
</clipPath>
<g id="surface50195" clip-path="url(#clip2)">
<path style=" stroke:none;fill-rule:nonzero;fill:url(#linear13);" d="M 16.496094 51.503906 L 112.496094 51.503906 C 116.914062 51.503906 120.496094 55.085938 120.496094 59.503906 L 120.496094 107.503906 C 120.496094 111.921875 116.914062 115.503906 112.496094 115.503906 L 16.496094 115.503906 C 12.078125 115.503906 8.496094 111.921875 8.496094 107.503906 L 8.496094 59.503906 C 8.496094 55.085938 12.078125 51.503906 16.496094 51.503906 Z M 16.496094 51.503906 "/>
<path style=" stroke:none;fill-rule:nonzero;fill:rgb(96.470588%,96.078432%,95.686275%);fill-opacity:1;" d="M 16.496094 27.503906 L 112.496094 27.503906 C 116.914062 27.503906 120.496094 31.464844 120.496094 36.347656 L 120.496094 102.664062 C 120.496094 107.546875 116.914062 111.503906 112.496094 111.503906 L 16.496094 111.503906 C 12.078125 111.503906 8.496094 107.546875 8.496094 102.664062 L 8.496094 36.347656 C 8.496094 31.464844 12.078125 27.503906 16.496094 27.503906 Z M 16.496094 27.503906 "/>
<path style=" stroke:none;fill-rule:nonzero;fill:rgb(23.921569%,21.960784%,27.450982%);fill-opacity:1;" d="M 21.496094 39.503906 L 27.496094 39.503906 C 29.710938 39.503906 31.273438 41.300781 31.496094 43.503906 L 32.496094 53.503906 C 32.714844 55.710938 30.710938 57.503906 28.496094 57.503906 L 20.496094 57.503906 C 18.277344 57.503906 16.273438 55.710938 16.496094 53.503906 L 17.496094 43.503906 C 17.714844 41.300781 19.277344 39.503906 21.496094 39.503906 Z M 21.496094 39.503906 "/>
<path style=" stroke:none;fill-rule:nonzero;fill:url(#linear14);" d="M 31.496094 43.503906 L 31.496094 47.503906 C 31.496094 49.722656 29.710938 51.503906 27.496094 51.503906 L 21.496094 51.503906 C 19.277344 51.503906 17.496094 49.722656 17.496094 47.503906 L 17.496094 43.503906 C 17.496094 41.289062 19.277344 39.503906 21.496094 39.503906 L 27.496094 39.503906 C 29.710938 39.503906 31.496094 41.289062 31.496094 43.503906 Z M 31.496094 43.503906 "/>
<path style=" stroke:none;fill-rule:nonzero;fill:rgb(23.921569%,21.960784%,27.450982%);fill-opacity:1;" d="M 41.496094 39.503906 L 47.496094 39.503906 C 49.710938 39.503906 51.273438 41.300781 51.496094 43.503906 L 52.496094 53.503906 C 52.714844 55.710938 50.710938 57.503906 48.496094 57.503906 L 40.496094 57.503906 C 38.277344 57.503906 36.273438 55.710938 36.496094 53.503906 L 37.496094 43.503906 C 37.714844 41.300781 39.277344 39.503906 41.496094 39.503906 Z M 41.496094 39.503906 "/>
<path style=" stroke:none;fill-rule:nonzero;fill:rgb(23.921569%,21.960784%,27.450982%);fill-opacity:1;" d="M 61.496094 39.503906 L 67.496094 39.503906 C 69.710938 39.503906 71.273438 41.300781 71.496094 43.503906 L 72.496094 53.503906 C 72.714844 55.710938 70.710938 57.503906 68.496094 57.503906 L 60.496094 57.503906 C 58.277344 57.503906 56.273438 55.710938 56.496094 53.503906 L 57.496094 43.503906 C 57.714844 41.300781 59.277344 39.503906 61.496094 39.503906 Z M 61.496094 39.503906 "/>
<path style=" stroke:none;fill-rule:nonzero;fill:rgb(23.921569%,21.960784%,27.450982%);fill-opacity:1;" d="M 81.496094 39.503906 L 87.496094 39.503906 C 89.710938 39.503906 91.273438 41.300781 91.496094 43.503906 L 92.496094 53.503906 C 92.714844 55.710938 90.710938 57.503906 88.496094 57.503906 L 80.496094 57.503906 C 78.277344 57.503906 76.273438 55.710938 76.496094 53.503906 L 77.496094 43.503906 C 77.714844 41.300781 79.277344 39.503906 81.496094 39.503906 Z M 81.496094 39.503906 "/>
<path style=" stroke:none;fill-rule:nonzero;fill:rgb(23.921569%,21.960784%,27.450982%);fill-opacity:1;" d="M 101.496094 39.503906 L 107.496094 39.503906 C 109.710938 39.503906 111.273438 41.300781 111.496094 43.503906 L 112.496094 53.503906 C 112.714844 55.710938 110.710938 57.503906 108.496094 57.503906 L 100.496094 57.503906 C 98.277344 57.503906 96.273438 55.710938 96.496094 53.503906 L 97.496094 43.503906 C 97.714844 41.300781 99.277344 39.503906 101.496094 39.503906 Z M 101.496094 39.503906 "/>
<path style=" stroke:none;fill-rule:nonzero;fill:rgb(23.921569%,21.960784%,27.450982%);fill-opacity:1;" d="M 31.496094 61.503906 L 37.496094 61.503906 C 39.710938 61.503906 41.273438 63.300781 41.496094 65.503906 L 42.496094 75.503906 C 42.714844 77.710938 40.710938 79.503906 38.496094 79.503906 L 30.496094 79.503906 C 28.277344 79.503906 26.273438 77.710938 26.496094 75.503906 L 27.496094 65.503906 C 27.714844 63.300781 29.277344 61.503906 31.496094 61.503906 Z M 31.496094 61.503906 "/>
<path style=" stroke:none;fill-rule:nonzero;fill:rgb(23.921569%,21.960784%,27.450982%);fill-opacity:1;" d="M 51.496094 61.503906 L 57.496094 61.503906 C 59.710938 61.503906 61.273438 63.300781 61.496094 65.503906 L 62.496094 75.503906 C 62.714844 77.710938 60.710938 79.503906 58.496094 79.503906 L 50.496094 79.503906 C 48.277344 79.503906 46.273438 77.710938 46.496094 75.503906 L 47.496094 65.503906 C 47.714844 63.300781 49.277344 61.503906 51.496094 61.503906 Z M 51.496094 61.503906 "/>
<path style=" stroke:none;fill-rule:nonzero;fill:rgb(23.921569%,21.960784%,27.450982%);fill-opacity:1;" d="M 71.496094 61.503906 L 77.496094 61.503906 C 79.710938 61.503906 81.273438 63.300781 81.496094 65.503906 L 82.496094 75.503906 C 82.714844 77.710938 80.710938 79.503906 78.496094 79.503906 L 70.496094 79.503906 C 68.277344 79.503906 66.273438 77.710938 66.496094 75.503906 L 67.496094 65.503906 C 67.714844 63.300781 69.277344 61.503906 71.496094 61.503906 Z M 71.496094 61.503906 "/>
<path style=" stroke:none;fill-rule:nonzero;fill:rgb(77.64706%,27.450982%,0%);fill-opacity:1;" d="M 91.496094 61.503906 L 98.496094 61.503906 C 100.710938 61.503906 102.273438 63.300781 102.496094 65.503906 L 103.496094 75.503906 C 103.714844 77.710938 101.710938 79.503906 99.496094 79.503906 L 90.496094 79.503906 C 88.277344 79.503906 86.273438 77.710938 86.496094 75.503906 L 87.496094 65.503906 C 87.714844 63.300781 89.277344 61.503906 91.496094 61.503906 Z M 91.496094 61.503906 "/>
<path style=" stroke:none;fill-rule:nonzero;fill:rgb(23.921569%,21.960784%,27.450982%);fill-opacity:1;" d="M 25.496094 83.503906 L 31.496094 83.503906 C 33.710938 83.503906 35.273438 85.300781 35.496094 87.503906 L 36.496094 97.503906 C 36.714844 99.710938 34.710938 101.503906 32.496094 101.503906 L 24.496094 101.503906 C 22.277344 101.503906 20.273438 99.710938 20.496094 97.503906 L 21.496094 87.503906 C 21.714844 85.300781 23.277344 83.503906 25.496094 83.503906 Z M 25.496094 83.503906 "/>
<path style=" stroke:none;fill-rule:nonzero;fill:rgb(23.921569%,21.960784%,27.450982%);fill-opacity:1;" d="M 97.496094 83.503906 L 103.496094 83.503906 C 105.710938 83.503906 107.273438 85.300781 107.496094 87.503906 L 108.496094 97.503906 C 108.714844 99.710938 106.710938 101.503906 104.496094 101.503906 L 96.496094 101.503906 C 94.277344 101.503906 92.273438 99.710938 92.496094 97.503906 L 93.496094 87.503906 C 93.714844 85.300781 95.277344 83.503906 97.496094 83.503906 Z M 97.496094 83.503906 "/>
<path style=" stroke:none;fill-rule:nonzero;fill:url(#linear15);" d="M 107.496094 87.503906 L 107.496094 91.503906 C 107.496094 93.722656 105.710938 95.503906 103.496094 95.503906 L 97.496094 95.503906 C 95.277344 95.503906 93.496094 93.722656 93.496094 91.503906 L 93.496094 87.503906 C 93.496094 85.289062 95.277344 83.503906 97.496094 83.503906 L 103.496094 83.503906 C 105.710938 83.503906 107.496094 85.289062 107.496094 87.503906 Z M 107.496094 87.503906 "/>
<path style=" stroke:none;fill-rule:nonzero;fill:rgb(50.980395%,50.588238%,52.549022%);fill-opacity:1;" d="M 45.496094 83.503906 L 83.496094 83.503906 C 85.710938 83.503906 87.273438 85.300781 87.496094 87.503906 L 88.496094 97.503906 C 88.714844 99.710938 86.710938 101.503906 84.496094 101.503906 L 44.496094 101.503906 C 42.277344 101.503906 40.273438 99.710938 40.496094 97.503906 L 41.496094 87.503906 C 41.714844 85.300781 43.277344 83.503906 45.496094 83.503906 Z M 45.496094 83.503906 "/>
<path style=" stroke:none;fill-rule:nonzero;fill:url(#linear16);" d="M 87.496094 87.503906 L 87.496094 91.503906 C 87.496094 93.722656 85.710938 95.503906 83.496094 95.503906 L 45.496094 95.503906 C 43.277344 95.503906 41.496094 93.722656 41.496094 91.503906 L 41.496094 87.503906 C 41.496094 85.289062 43.277344 83.503906 45.496094 83.503906 L 83.496094 83.503906 C 85.710938 83.503906 87.496094 85.289062 87.496094 87.503906 Z M 87.496094 87.503906 "/>
<path style=" stroke:none;fill-rule:nonzero;fill:url(#linear17);" d="M 51.496094 43.503906 L 51.496094 47.503906 C 51.496094 49.722656 49.710938 51.503906 47.496094 51.503906 L 41.496094 51.503906 C 39.277344 51.503906 37.496094 49.722656 37.496094 47.503906 L 37.496094 43.503906 C 37.496094 41.289062 39.277344 39.503906 41.496094 39.503906 L 47.496094 39.503906 C 49.710938 39.503906 51.496094 41.289062 51.496094 43.503906 Z M 51.496094 43.503906 "/>
<path style=" stroke:none;fill-rule:nonzero;fill:url(#linear18);" d="M 71.496094 43.503906 L 71.496094 47.503906 C 71.496094 49.722656 69.710938 51.503906 67.496094 51.503906 L 61.496094 51.503906 C 59.277344 51.503906 57.496094 49.722656 57.496094 47.503906 L 57.496094 43.503906 C 57.496094 41.289062 59.277344 39.503906 61.496094 39.503906 L 67.496094 39.503906 C 69.710938 39.503906 71.496094 41.289062 71.496094 43.503906 Z M 71.496094 43.503906 "/>
<path style=" stroke:none;fill-rule:nonzero;fill:url(#linear19);" d="M 91.496094 43.503906 L 91.496094 47.503906 C 91.496094 49.722656 89.710938 51.503906 87.496094 51.503906 L 81.496094 51.503906 C 79.277344 51.503906 77.496094 49.722656 77.496094 47.503906 L 77.496094 43.503906 C 77.496094 41.289062 79.277344 39.503906 81.496094 39.503906 L 87.496094 39.503906 C 89.710938 39.503906 91.496094 41.289062 91.496094 43.503906 Z M 91.496094 43.503906 "/>
<path style=" stroke:none;fill-rule:nonzero;fill:url(#linear20);" d="M 111.496094 43.503906 L 111.496094 47.503906 C 111.496094 49.722656 109.710938 51.503906 107.496094 51.503906 L 101.496094 51.503906 C 99.277344 51.503906 97.496094 49.722656 97.496094 47.503906 L 97.496094 43.503906 C 97.496094 41.289062 99.277344 39.503906 101.496094 39.503906 L 107.496094 39.503906 C 109.710938 39.503906 111.496094 41.289062 111.496094 43.503906 Z M 111.496094 43.503906 "/>
<path style=" stroke:none;fill-rule:nonzero;fill:url(#linear21);" d="M 41.496094 65.503906 L 41.496094 69.503906 C 41.496094 71.722656 39.710938 73.503906 37.496094 73.503906 L 31.496094 73.503906 C 29.277344 73.503906 27.496094 71.722656 27.496094 69.503906 L 27.496094 65.503906 C 27.496094 63.289062 29.277344 61.503906 31.496094 61.503906 L 37.496094 61.503906 C 39.710938 61.503906 41.496094 63.289062 41.496094 65.503906 Z M 41.496094 65.503906 "/>
<path style=" stroke:none;fill-rule:nonzero;fill:url(#linear22);" d="M 61.496094 65.503906 L 61.496094 69.503906 C 61.496094 71.722656 59.710938 73.503906 57.496094 73.503906 L 51.496094 73.503906 C 49.277344 73.503906 47.496094 71.722656 47.496094 69.503906 L 47.496094 65.503906 C 47.496094 63.289062 49.277344 61.503906 51.496094 61.503906 L 57.496094 61.503906 C 59.710938 61.503906 61.496094 63.289062 61.496094 65.503906 Z M 61.496094 65.503906 "/>
<path style=" stroke:none;fill-rule:nonzero;fill:url(#linear23);" d="M 81.496094 65.503906 L 81.496094 69.503906 C 81.496094 71.722656 79.710938 73.503906 77.496094 73.503906 L 71.496094 73.503906 C 69.277344 73.503906 67.496094 71.722656 67.496094 69.503906 L 67.496094 65.503906 C 67.496094 63.289062 69.277344 61.503906 71.496094 61.503906 L 77.496094 61.503906 C 79.710938 61.503906 81.496094 63.289062 81.496094 65.503906 Z M 81.496094 65.503906 "/>
<path style=" stroke:none;fill-rule:nonzero;fill:url(#linear24);" d="M 102.496094 65.503906 L 102.496094 69.503906 C 102.496094 71.722656 100.710938 73.503906 98.496094 73.503906 L 91.496094 73.503906 C 89.277344 73.503906 87.496094 71.722656 87.496094 69.503906 L 87.496094 65.503906 C 87.496094 63.289062 89.277344 61.503906 91.496094 61.503906 L 98.496094 61.503906 C 100.710938 61.503906 102.496094 63.289062 102.496094 65.503906 Z M 102.496094 65.503906 "/>
<path style=" stroke:none;fill-rule:nonzero;fill:url(#linear25);" d="M 35.496094 87.503906 L 35.496094 91.503906 C 35.496094 93.722656 33.710938 95.503906 31.496094 95.503906 L 25.496094 95.503906 C 23.277344 95.503906 21.496094 93.722656 21.496094 91.503906 L 21.496094 87.503906 C 21.496094 85.289062 23.277344 83.503906 25.496094 83.503906 L 31.496094 83.503906 C 33.710938 83.503906 35.496094 85.289062 35.496094 87.503906 Z M 35.496094 87.503906 "/>
</g>
<clipPath id="clip1">
  <rect x="0" y="0" width="128" height="128"/>
</clipPath>
<filter id="alpha" filterUnits="objectBoundingBox" x="0%" y="0%" width="100%" height="100%">
  <feColorMatrix type="matrix" in="SourceGraphic" values="0 0 0 0 1 0 0 0 0 1 0 0 0 0 1 0 0 0 1 0"/>
</filter>
<g id="surface50198" clip-path="url(#clip1)" filter="url(#alpha)">
<use xlink:href="#surface50195"/>
</g>
<mask id="mask0">
<use xlink:href="#surface50198"/>
</mask>
<mask id="mask1">
  <g filter="url(#alpha)">
<rect x="0" y="0" width="128" height="128" style="fill:rgb(0%,0%,0%);fill-opacity:0.8;stroke:none;"/>
  </g>
</mask>
<linearGradient id="linear26" gradientUnits="userSpaceOnUse" x1="300" y1="235" x2="428" y2="235" gradientTransform="matrix(0.000000000000000023,0.37,-0.98462,0.00000000000000006,295.38501,-30.360001)">
<stop offset="0" style="stop-color:rgb(97.647059%,94.117647%,41.960785%);stop-opacity:1;"/>
<stop offset="1" style="stop-color:rgb(96.078432%,76.078433%,6.666667%);stop-opacity:1;"/>
</linearGradient>
<clipPath id="clip4">
  <rect x="0" y="0" width="128" height="128"/>
</clipPath>
<g id="surface50192" clip-path="url(#clip4)">
<path style=" stroke:none;fill-rule:nonzero;fill:url(#linear26);" d="M 128 80.640625 L 128 128 L 0 128 L 0 80.640625 Z M 128 80.640625 "/>
<path style=" stroke:none;fill-rule:nonzero;fill:rgb(0%,0%,0%);fill-opacity:1;" d="M 13.308594 80.640625 L 60.664062 128 L 81.878906 128 L 34.519531 80.640625 Z M 55.730469 80.640625 L 103.09375 128 L 124.308594 128 L 76.945312 80.640625 Z M 98.160156 80.640625 L 128 110.480469 L 128 89.269531 L 119.371094 80.640625 Z M 0 88.546875 L 0 109.761719 L 18.238281 128 L 39.453125 128 Z M 0 88.546875 "/>
</g>
<clipPath id="clip3">
  <rect x="0" y="0" width="128" height="128"/>
</clipPath>
<g id="surface50197" clip-path="url(#clip3)">
<use xlink:href="#surface50192" mask="url(#mask1)"/>
</g>
</defs>
<g id="surface50185">
<path style=" stroke:none;fill-rule:nonzero;fill:url(#linear0);" d="M 16.496094 51.503906 L 112.496094 51.503906 C 116.914062 51.503906 120.496094 55.085938 120.496094 59.503906 L 120.496094 107.503906 C 120.496094 111.921875 116.914062 115.503906 112.496094 115.503906 L 16.496094 115.503906 C 12.078125 115.503906 8.496094 111.921875 8.496094 107.503906 L 8.496094 59.503906 C 8.496094 55.085938 12.078125 51.503906 16.496094 51.503906 Z M 16.496094 51.503906 "/>
<path style=" stroke:none;fill-rule:nonzero;fill:rgb(96.470588%,96.078432%,95.686275%);fill-opacity:1;" d="M 16.496094 27.503906 L 112.496094 27.503906 C 116.914062 27.503906 120.496094 31.464844 120.496094 36.347656 L 120.496094 102.664062 C 120.496094 107.546875 116.914062 111.503906 112.496094 111.503906 L 16.496094 111.503906 C 12.078125 111.503906 8.496094 107.546875 8.496094 102.664062 L 8.496094 36.347656 C 8.496094 31.464844 12.078125 27.503906 16.496094 27.503906 Z M 16.496094 27.503906 "/>
<path style=" stroke:none;fill-rule:nonzero;fill:rgb(23.921569%,21.960784%,27.450982%);fill-opacity:1;" d="M 21.496094 39.503906 L 27.496094 39.503906 C 29.710938 39.503906 31.273438 41.300781 31.496094 43.503906 L 32.496094 53.503906 C 32.714844 55.710938 30.710938 57.503906 28.496094 57.503906 L 20.496094 57.503906 C 18.277344 57.503906 16.273438 55.710938 16.496094 53.503906 L 17.496094 43.503906 C 17.714844 41.300781 19.277344 39.503906 21.496094 39.503906 Z M 21.496094 39.503906 "/>
<path style=" stroke:none;fill-rule:nonzero;fill:url(#linear1);" d="M 31.496094 43.503906 L 31.496094 47.503906 C 31.496094 49.722656 29.710938 51.503906 27.496094 51.503906 L 21.496094 51.503906 C 19.277344 51.503906 17.496094 49.722656 17.496094 47.503906 L 17.496094 43.503906 C 17.496094 41.289062 19.277344 39.503906 21.496094 39.503906 L 27.496094 39.503906 C 29.710938 39.503906 31.496094 41.289062 31.496094 43.503906 Z M 31.496094 43.503906 "/>
<path style=" stroke:none;fill-rule:nonzero;fill:rgb(23.921569%,21.960784%,27.450982%);fill-opacity:1;" d="M 41.496094 39.503906 L 47.496094 39.503906 C 49.710938 39.503906 51.273438 41.300781 51.496094 43.503906 L 52.496094 53.503906 C 52.714844 55.710938 50.710938 57.503906 48.496094 57.503906 L 40.496094 57.503906 C 38.277344 57.503906 36.273438 55.710938 36.496094 53.503906 L 37.496094 43.503906 C 37.714844 41.300781 39.277344 39.503906 41.496094 39.503906 Z M 41.496094 39.503906 "/>
<path style=" stroke:none;fill-rule:nonzero;fill:rgb(23.921569%,21.960784%,27.450982%);fill-opacity:1;" d="M 61.496094 39.503906 L 67.496094 39.503906 C 69.710938 39.503906 71.273438 41.300781 71.496094 43.503906 L 72.496094 53.503906 C 72.714844 55.710938 70.710938 57.503906 68.496094 57.503906 L 60.496094 57.503906 C 58.277344 57.503906 56.273438 55.710938 56.496094 53.503906 L 57.496094 43.503906 C 57.714844 41.300781 59.277344 39.503906 61.496094 39.503906 Z M 61.496094 39.503906 "/>
<path style=" stroke:none;fill-rule:nonzero;fill:rgb(23.921569%,21.960784%,27.450982%);fill-opacity:1;" d="M 81.496094 39.503906 L 87.496094 39.503906 C 89.710938 39.503906 91.273438 41.300781 91.496094 43.503906 L 92.496094 53.503906 C 92.714844 55.710938 90.710938 57.503906 88.496094 57.503906 L 80.496094 57.503906 C 78.277344 57.503906 76.273438 55.710938 76.496094 53.503906 L 77.496094 43.503906 C 77.714844 41.300781 79.277344 39.503906 81.496094 39.503906 Z M 81.496094 39.503906 "/>
<path style=" stroke:none;fill-rule:nonzero;fill:rgb(23.921569%,21.960784%,27.450982%);fill-opacity:1;" d="M 101.496094 39.503906 L 107.496094 39.503906 C 109.710938 39.503906 111.273438 41.300781 111.496094 43.503906 L 112.496094 53.503906 C 112.714844 55.710938 110.710938 57.503906 108.496094 57.503906 L 100.496094 57.503906 C 98.277344 57.503906 96.273438 55.710938 96.496094 53.503906 L 97.496094 43.503906 C 97.714844 41.300781 99.277344 39.503906 101.496094 39.503906 Z M 101.496094 39.503906 "/>
<path style=" stroke:none;fill-rule:nonzero;fill:rgb(23.921569%,21.960784%,27.450982%);fill-opacity:1;" d="M 31.496094 61.503906 L 37.496094 61.503906 C 39.710938 61.503906 41.273438 63.300781 41.496094 65.503906 L 42.496094 75.503906 C 42.714844 77.710938 40.710938 79.503906 38.496094 79.503906 L 30.496094 79.503906 C 28.277344 79.503906 26.273438 77.710938 26.496094 75.503906 L 27.496094 65.503906 C 27.714844 63.300781 29.277344 61.503906 31.496094 61.503906 Z M 31.496094 61.503906 "/>
<path style=" stroke:none;fill-rule:nonzero;fill:rgb(23.921569%,21.960784%,27.450982%);fill-opacity:1;" d="M 51.496094 61.503906 L 57.496094 61.503906 C 59.710938 61.503906 61.273438 63.300781 61.496094 65.503906 L 62.496094 75.503906 C 62.714844 77.710938 60.710938 79.503906 58.496094 79.503906 L 50.496094 79.503906 C 48.277344 79.503906 46.273438 77.710938 46.496094 75.503906 L 47.496094 65.503906 C 47.714844 63.300781 49.277344 61.503906 51.496094 61.503906 Z M 51.496094 61.503906 "/>
<path style=" stroke:none;fill-rule:nonzero;fill:rgb(23.921569%,21.960784%,27.450982%);fill-opacity:1;" d="M 71.496094 61.503906 L 77.496094 61.503906 C 79.710938 61.503906 81.273438 63.300781 81.496094 65.503906 L 82.496094 75.503906 C 82.714844 77.710938 80.710938 79.503906 78.496094 79.503906 L 70.496094 79.503906 C 68.277344 79.503906 66.273438 77.710938 66.496094 75.503906 L 67.496094 65.503906 C 67.714844 63.300781 69.277344 61.503906 71.496094 61.503906 Z M 71.496094 61.503906 "/>
<path style=" stroke:none;fill-rule:nonzero;fill:rgb(77.64706%,27.450982%,0%);fill-opacity:1;" d="M 91.496094 61.503906 L 98.496094 61.503906 C 100.710938 61.503906 102.273438 63.300781 102.496094 65.503906 L 103.496094 75.503906 C 103.714844 77.710938 101.710938 79.503906 99.496094 79.503906 L 90.496094 79.503906 C 88.277344 79.503906 86.273438 77.710938 86.496094 75.503906 L 87.496094 65.503906 C 87.714844 63.300781 89.277344 61.503906 91.496094 61.503906 Z M 91.496094 61.503906 "/>
<path style=" stroke:none;fill-rule:nonzero;fill:rgb(23.921569%,21.960784%,27.450982%);fill-opacity:1;" d="M 25.496094 83.503906 L 31.496094 83.503906 C 33.710938 83.503906 35.273438 85.300781 35.496094 87.503906 L 36.496094 97.503906 C 36.714844 99.710938 34.710938 101.503906 32.496094 101.503906 L 24.496094 101.503906 C 22.277344 101.503906 20.273438 99.710938 20.496094 97.503906 L 21.496094 87.503906 C 21.714844 85.300781 23.277344 83.503906 25.496094 83.503906 Z M 25.496094 83.503906 "/>
<path style=" stroke:none;fill-rule:nonzero;fill:rgb(23.921569%,21.960784%,27.450982%);fill-opacity:1;" d="M 97.496094 83.503906 L 103.496094 83.503906 C 105.710938 83.503906 107.273438 85.300781 107.496094 87.503906 L 108.496094 97.503906 C 108.714844 99.710938 106.710938 101.503906 104.496094 101.503906 L 96.496094 101.503906 C 94.277344 101.503906 92.273438 99.710938 92.496094 97.503906 L 93.496094 87.503906 C 93.714844 85.300781 95.277344 83.503906 97.496094 83.503906 Z M 97.496094 83.503906 "/>
<path style=" stroke:none;fill-rule:nonzero;fill:url(#linear2);" d="M 107.496094 87.503906 L 107.496094 91.503906 C 107.496094 93.722656 105.710938 95.503906 103.496094 95.503906 L 97.496094 95.503906 C 95.277344 95.503906 93.496094 93.722656 93.496094 91.503906 L 93.496094 87.503906 C 93.496094 85.289062 95.277344 83.503906 97.496094 83.503906 L 103.496094 83.503906 C 105.710938 83.503906 107.496094 85.289062 107.496094 87.503906 Z M 107.496094 87.503906 "/>
<path style=" stroke:none;fill-rule:nonzero;fill:rgb(50.980395%,50.588238%,52.549022%);fill-opacity:1;" d="M 45.496094 83.503906 L 83.496094 83.503906 C 85.710938 83.503906 87.273438 85.300781 87.496094 87.503906 L 88.496094 97.503906 C 88.714844 99.710938 86.710938 101.503906 84.496094 101.503906 L 44.496094 101.503906 C 42.277344 101.503906 40.273438 99.710938 40.496094 97.503906 L 41.496094 87.503906 C 41.714844 85.300781 43.277344 83.503906 45.496094 83.503906 Z M 45.496094 83.503906 "/>
<path style=" stroke:none;fill-rule:nonzero;fill:url(#linear3);" d="M 87.496094 87.503906 L 87.496094 91.503906 C 87.496094 93.722656 85.710938 95.503906 83.496094 95.503906 L 45.496094 95.503906 C 43.277344 95.503906 41.496094 93.722656 41.496094 91.503906 L 41.496094 87.503906 C 41.496094 85.289062 43.277344 83.503906 45.496094 83.503906 L 83.496094 83.503906 C 85.710938 83.503906 87.496094 85.289062 87.496094 87.503906 Z M 87.496094 87.503906 "/>
<path style=" stroke:none;fill-rule:nonzero;fill:url(#linear4);" d="M 51.496094 43.503906 L 51.496094 47.503906 C 51.496094 49.722656 49.710938 51.503906 47.496094 51.503906 L 41.496094 51.503906 C 39.277344 51.503906 37.496094 49.722656 37.496094 47.503906 L 37.496094 43.503906 C 37.496094 41.289062 39.277344 39.503906 41.496094 39.503906 L 47.496094 39.503906 C 49.710938 39.503906 51.496094 41.289062 51.496094 43.503906 Z M 51.496094 43.503906 "/>
<path style=" stroke:none;fill-rule:nonzero;fill:url(#linear5);" d="M 71.496094 43.503906 L 71.496094 47.503906 C 71.496094 49.722656 69.710938 51.503906 67.496094 51.503906 L 61.496094 51.503906 C 59.277344 51.503906 57.496094 49.722656 57.496094 47.503906 L 57.496094 43.503906 C 57.496094 41.289062 59.277344 39.503906 61.496094 39.503906 L 67.496094 39.503906 C 69.710938 39.503906 71.496094 41.289062 71.496094 43.503906 Z M 71.496094 43.503906 "/>
<path style=" stroke:none;fill-rule:nonzero;fill:url(#linear6);" d="M 91.496094 43.503906 L 91.496094 47.503906 C 91.496094 49.722656 89.710938 51.503906 87.496094 51.503906 L 81.496094 51.503906 C 79.277344 51.503906 77.496094 49.722656 77.496094 47.503906 L 77.496094 43.503906 C 77.496094 41.289062 79.277344 39.503906 81.496094 39.503906 L 87.496094 39.503906 C 89.710938 39.503906 91.496094 41.289062 91.496094 43.503906 Z M 91.496094 43.503906 "/>
<path style=" stroke:none;fill-rule:nonzero;fill:url(#linear7);" d="M 111.496094 43.503906 L 111.496094 47.503906 C 111.496094 49.722656 109.710938 51.503906 107.496094 51.503906 L 101.496094 51.503906 C 99.277344 51.503906 97.496094 49.722656 97.496094 47.503906 L 97.496094 43.503906 C 97.496094 41.289062 99.277344 39.503906 101.496094 39.503906 L 107.496094 39.503906 C 109.710938 39.503906 111.496094 41.289062 111.496094 43.503906 Z M 111.496094 43.503906 "/>
<path style=" stroke:none;fill-rule:nonzero;fill:url(#linear8);" d="M 41.496094 65.503906 L 41.496094 69.503906 C 41.496094 71.722656 39.710938 73.503906 37.496094 73.503906 L 31.496094 73.503906 C 29.277344 73.503906 27.496094 71.722656 27.496094 69.503906 L 27.496094 65.503906 C 27.496094 63.289062 29.277344 61.503906 31.496094 61.503906 L 37.496094 61.503906 C 39.710938 61.503906 41.496094 63.289062 41.496094 65.503906 Z M 41.496094 65.503906 "/>
<path style=" stroke:none;fill-rule:nonzero;fill:url(#linear9);" d="M 61.496094 65.503906 L 61.496094 69.503906 C 61.496094 71.722656 59.710938 73.503906 57.496094 73.503906 L 51.496094 73.503906 C 49.277344 73.503906 47.496094 71.722656 47.496094 69.503906 L 47.496094 65.503906 C 47.496094 63.289062 49.277344 61.503906 51.496094 61.503906 L 57.496094 61.503906 C 59.710938 61.503906 61.496094 63.289062 61.496094 65.503906 Z M 61.496094 65.503906 "/>
<path style=" stroke:none;fill-rule:nonzero;fill:url(#linear10);" d="M 81.496094 65.503906 L 81.496094 69.503906 C 81.496094 71.722656 79.710938 73.503906 77.496094 73.503906 L 71.496094 73.503906 C 69.277344 73.503906 67.496094 71.722656 67.496094 69.503906 L 67.496094 65.503906 C 67.496094 63.289062 69.277344 61.503906 71.496094 61.503906 L 77.496094 61.503906 C 79.710938 61.503906 81.496094 63.289062 81.496094 65.503906 Z M 81.496094 65.503906 "/>
<path style=" stroke:none;fill-rule:nonzero;fill:url(#linear11);" d="M 102.496094 65.503906 L 102.496094 69.503906 C 102.496094 71.722656 100.710938 73.503906 98.496094 73.503906 L 91.496094 73.503906 C 89.277344 73.503906 87.496094 71.722656 87.496094 69.503906 L 87.496094 65.503906 C 87.496094 63.289062 89.277344 61.503906 91.496094 61.503906 L 98.496094 61.503906 C 100.710938 61.503906 102.496094 63.289062 102.496094 65.503906 Z M 102.496094 65.503906 "/>
<path style=" stroke:none;fill-rule:nonzero;fill:url(#linear12);" d="M 35.496094 87.503906 L 35.496094 91.503906 C 35.496094 93.722656 33.710938 95.503906 31.496094 95.503906 L 25.496094 95.503906 C 23.277344 95.503906 21.496094 93.722656 21.496094 91.503906 L 21.496094 87.503906 C 21.496094 85.289062 23.277344 83.503906 25.496094 83.503906 L 31.496094 83.503906 C 33.710938 83.503906 35.496094 85.289062 35.496094 87.503906 Z M 35.496094 87.503906 "/>
<use xlink:href="#surface50197" mask="url(#mask0)"/>
</g>
</svg>
